<?xml version="1.0" encoding="UTF-8" standalone="no"?>
<!DOCTYPE svg PUBLIC "-//W3C//DTD SVG 1.1//EN"
 "http://www.w3.org/Graphics/SVG/1.1/DTD/svg11.dtd">
<!-- Generated by graphviz version 2.43.0 (0)
 -->
<!-- Title: %3 Pages: 1 -->
<svg width="453pt" height="406pt"
 viewBox="0.00 0.00 452.88 406.00" xmlns="http://www.w3.org/2000/svg" xmlns:xlink="http://www.w3.org/1999/xlink">
<g id="graph0" class="graph" transform="scale(1 1) rotate(0) translate(4 402)">
<title>%3</title>
<polygon fill="transparent" stroke="transparent" points="-4,4 -4,-402 448.88,-402 448.88,4 -4,4"/>
<!-- init_node -->
<g id="node1" class="node">
<title>init_node</title>
<polygon fill="none" stroke="black" points="87.9,-397 33.9,-397 33.9,-361 87.9,-361 87.9,-397"/>
<text text-anchor="middle" x="60.9" y="-375.3" font-family="Nimbus Mono" font-size="14.00">init</text>
</g>
<!-- init_ts_node -->
<g id="node2" class="node">
<title>init_ts_node</title>
<polygon fill="none" stroke="black" points="106.4,-326 15.4,-326 15.4,-288 106.4,-288 106.4,-326"/>
<text text-anchor="middle" x="60.9" y="-310.8" font-family="Nimbus Mono" font-size="14.00">timestamp</text>
<text text-anchor="middle" x="60.9" y="-295.8" font-family="Nimbus Mono" font-size="14.00">init</text>
</g>
<!-- init_node&#45;&gt;init_ts_node -->
<g id="edge1" class="edge">
<title>init_node&#45;&gt;init_ts_node</title>
<path fill="none" stroke="black" d="M60.9,-360.83C60.9,-353.39 60.9,-344.59 60.9,-336.29"/>
<polygon fill="black" stroke="black" points="64.4,-336.17 60.9,-326.17 57.4,-336.17 64.4,-336.17"/>
</g>
<!-- log_token_node -->
<g id="node3" class="node">
<title>log_token_node</title>
<polygon fill="none" stroke="black" points="161.9,-398 103.9,-398 103.9,-360 161.9,-360 161.9,-398"/>
<text text-anchor="middle" x="132.9" y="-382.8" font-family="Nimbus Mono" font-size="14.00">token</text>
<text text-anchor="middle" x="132.9" y="-367.8" font-family="Nimbus Mono" font-size="14.00">login</text>
</g>
<!-- init_node&#45;&gt;log_token_node -->
<g id="edge2" class="edge">
<title>init_node&#45;&gt;log_token_node</title>
<path fill="none" stroke="black" d="M88.12,-379C89.87,-379 91.65,-379 93.45,-379"/>
<polygon fill="black" stroke="black" points="93.72,-382.5 103.72,-379 93.72,-375.5 93.72,-382.5"/>
</g>
<!-- gen_key_csr_node -->
<g id="node4" class="node">
<title>gen_key_csr_node</title>
<polygon fill="none" stroke="black" points="286.4,-398 195.4,-398 195.4,-360 286.4,-360 286.4,-398"/>
<text text-anchor="middle" x="240.9" y="-382.8" font-family="Nimbus Mono" font-size="14.00">token</text>
<text text-anchor="middle" x="240.9" y="-367.8" font-family="Nimbus Mono" font-size="14.00">init&#45;keys</text>
</g>
<!-- log_token_node&#45;&gt;gen_key_csr_node -->
<g id="edge3" class="edge">
<title>log_token_node&#45;&gt;gen_key_csr_node</title>
<path fill="none" stroke="black" d="M162.13,-379C169.33,-379 177.28,-379 185.29,-379"/>
<polygon fill="black" stroke="black" points="185.39,-382.5 195.39,-379 185.39,-375.5 185.39,-382.5"/>
</g>
<!-- download_csr_node -->
<g id="node5" class="node">
<title>download_csr_node</title>
<polygon fill="none" stroke="black" stroke-dasharray="5,2" points="238.1,-326 114.1,-326 114.1,-288 238.1,-288 238.1,-326"/>
<text text-anchor="middle" x="176.1" y="-310.8" font-family="Nimbus Mono" font-size="14.00">cert</text>
<text text-anchor="middle" x="176.1" y="-295.8" font-family="Nimbus Mono" font-size="14.00">download&#45;csrs</text>
</g>
<!-- gen_key_csr_node&#45;&gt;download_csr_node -->
<g id="edge6" class="edge">
<title>gen_key_csr_node&#45;&gt;download_csr_node</title>
<path fill="none" stroke="black" stroke-dasharray="5,2" d="M223.53,-359.71C216.42,-351.8 208.05,-342.5 200.35,-333.94"/>
<polygon fill="black" stroke="black" points="202.8,-331.44 193.51,-326.35 197.6,-336.12 202.8,-331.44"/>
</g>
<!-- outside_cert_node -->
<g id="node6" class="node">
<title>outside_cert_node</title>
<polygon fill="none" stroke="black" stroke-dasharray="1,5" points="444.67,-294.92 444.67,-319.08 392.79,-336.17 319.41,-336.17 267.53,-319.08 267.53,-294.92 319.41,-277.83 392.79,-277.83 444.67,-294.92"/>
<text text-anchor="middle" x="356.1" y="-310.8" font-family="Nimbus Mono" font-size="14.00">Sign CSRS at</text>
<text text-anchor="middle" x="356.1" y="-295.8" font-family="Nimbus Mono" font-size="14.00">approved CA</text>
</g>
<!-- download_csr_node&#45;&gt;outside_cert_node -->
<g id="edge7" class="edge">
<title>download_csr_node&#45;&gt;outside_cert_node</title>
<path fill="none" stroke="black" stroke-dasharray="1,5" d="M238.3,-307C244.5,-307 250.9,-307 257.35,-307"/>
<polygon fill="black" stroke="black" points="257.53,-310.5 267.53,-307 257.53,-303.5 257.53,-310.5"/>
</g>
<!-- imp_cert_node -->
<g id="node7" class="node">
<title>imp_cert_node</title>
<polygon fill="none" stroke="black" points="93.9,-254 27.9,-254 27.9,-216 93.9,-216 93.9,-254"/>
<text text-anchor="middle" x="60.9" y="-238.8" font-family="Nimbus Mono" font-size="14.00">cert</text>
<text text-anchor="middle" x="60.9" y="-223.8" font-family="Nimbus Mono" font-size="14.00">import</text>
</g>
<!-- outside_cert_node&#45;&gt;imp_cert_node -->
<g id="edge8" class="edge">
<title>outside_cert_node&#45;&gt;imp_cert_node</title>
<path fill="none" stroke="black" stroke-dasharray="1,5" d="M283.89,-289.39C227.59,-275.66 151.3,-257.05 104.13,-245.54"/>
<polygon fill="black" stroke="black" points="104.78,-242.1 94.24,-243.13 103.12,-248.9 104.78,-242.1"/>
</g>
<!-- reg_auth_node -->
<g id="node8" class="node">
<title>reg_auth_node</title>
<polygon fill="none" stroke="black" points="232,-254 149,-254 149,-216 232,-216 232,-254"/>
<text text-anchor="middle" x="190.5" y="-238.8" font-family="Nimbus Mono" font-size="14.00">cert</text>
<text text-anchor="middle" x="190.5" y="-223.8" font-family="Nimbus Mono" font-size="14.00">register</text>
</g>
<!-- imp_cert_node&#45;&gt;reg_auth_node -->
<g id="edge4" class="edge">
<title>imp_cert_node&#45;&gt;reg_auth_node</title>
<path fill="none" stroke="black" d="M93.94,-235C107.47,-235 123.45,-235 138.47,-235"/>
<polygon fill="black" stroke="black" points="138.68,-238.5 148.68,-235 138.68,-231.5 138.68,-238.5"/>
</g>
<!-- act_auth_node -->
<g id="node9" class="node">
<title>act_auth_node</title>
<polygon fill="none" stroke="black" points="354.4,-254 271.4,-254 271.4,-216 354.4,-216 354.4,-254"/>
<text text-anchor="middle" x="312.9" y="-238.8" font-family="Nimbus Mono" font-size="14.00">cert</text>
<text text-anchor="middle" x="312.9" y="-223.8" font-family="Nimbus Mono" font-size="14.00">activate</text>
</g>
<!-- reg_auth_node&#45;&gt;act_auth_node -->
<g id="edge5" class="edge">
<title>reg_auth_node&#45;&gt;act_auth_node</title>
<path fill="none" stroke="black" d="M232.28,-235C241.54,-235 251.45,-235 261.06,-235"/>
<polygon fill="black" stroke="black" points="261.31,-238.5 271.31,-235 261.31,-231.5 261.31,-238.5"/>
</g>
<!-- add_client_node -->
<g id="node10" class="node">
<title>add_client_node</title>
<polygon fill="none" stroke="black" points="223.5,-182 157.5,-182 157.5,-144 223.5,-144 223.5,-182"/>
<text text-anchor="middle" x="190.5" y="-166.8" font-family="Nimbus Mono" font-size="14.00">client</text>
<text text-anchor="middle" x="190.5" y="-151.8" font-family="Nimbus Mono" font-size="14.00">add</text>
</g>
<!-- act_auth_node&#45;&gt;add_client_node -->
<g id="edge9" class="edge">
<title>act_auth_node&#45;&gt;add_client_node:e</title>
<path fill="none" stroke="black" d="M288.94,-215.71C269.91,-200.38 244.43,-179.86 231.6,-169.52"/>
<polygon fill="black" stroke="black" points="233.48,-166.55 223.5,-163 229.09,-172 233.48,-166.55"/>
</g>
<!-- reg_client_node -->
<g id="node11" class="node">
<title>reg_client_node</title>
<polygon fill="none" stroke="black" points="160,-110 77,-110 77,-72 160,-72 160,-110"/>
<text text-anchor="middle" x="118.5" y="-94.8" font-family="Nimbus Mono" font-size="14.00">client</text>
<text text-anchor="middle" x="118.5" y="-79.8" font-family="Nimbus Mono" font-size="14.00">register</text>
</g>
<!-- add_client_node&#45;&gt;reg_client_node -->
<g id="edge10" class="edge">
<title>add_client_node&#45;&gt;reg_client_node</title>
<path fill="none" stroke="black" d="M171.21,-143.71C163.13,-135.63 153.62,-126.12 144.92,-117.42"/>
<polygon fill="black" stroke="black" points="147.39,-114.94 137.85,-110.35 142.44,-119.89 147.39,-114.94"/>
</g>
<!-- add_serdesc_node -->
<g id="node12" class="node">
<title>add_serdesc_node</title>
<polygon fill="none" stroke="black" points="346.9,-110 206.9,-110 206.9,-72 346.9,-72 346.9,-110"/>
<text text-anchor="middle" x="276.9" y="-94.8" font-family="Nimbus Mono" font-size="14.00">service</text>
<text text-anchor="middle" x="276.9" y="-79.8" font-family="Nimbus Mono" font-size="14.00">add&#45;description</text>
</g>
<!-- add_client_node&#45;&gt;add_serdesc_node -->
<g id="edge11" class="edge">
<title>add_client_node&#45;&gt;add_serdesc_node</title>
<path fill="none" stroke="black" d="M213.65,-143.71C223.61,-135.41 235.4,-125.59 246.08,-116.69"/>
<polygon fill="black" stroke="black" points="248.54,-119.19 253.98,-110.1 244.06,-113.81 248.54,-119.19"/>
</g>
<!-- enable_serdesc_node -->
<g id="node13" class="node">
<title>enable_serdesc_node</title>
<polygon fill="none" stroke="black" points="165,-38 0,-38 0,0 165,0 165,-38"/>
<text text-anchor="middle" x="82.5" y="-22.8" font-family="Nimbus Mono" font-size="14.00">service</text>
<text text-anchor="middle" x="82.5" y="-7.8" font-family="Nimbus Mono" font-size="14.00">enable&#45;description</text>
</g>
<!-- add_serdesc_node&#45;&gt;enable_serdesc_node -->
<g id="edge12" class="edge">
<title>add_serdesc_node&#45;&gt;enable_serdesc_node:n</title>
<path fill="none" stroke="black" d="M206.99,-71.94C164.1,-60.25 113.5,-46.45 92.46,-40.71"/>
<polygon fill="black" stroke="black" points="93.07,-37.25 82.5,-38 91.23,-44.01 93.07,-37.25"/>
</g>
<!-- add_seraccess_node -->
<g id="node14" class="node">
<title>add_seraccess_node</title>
<polygon fill="none" stroke="black" points="268.8,-38 169.8,-38 169.8,0 268.8,0 268.8,-38"/>
<text text-anchor="middle" x="219.3" y="-22.8" font-family="Nimbus Mono" font-size="14.00">service</text>
<text text-anchor="middle" x="219.3" y="-7.8" font-family="Nimbus Mono" font-size="14.00">add&#45;access</text>
</g>
<!-- add_serdesc_node&#45;&gt;add_seraccess_node -->
<g id="edge13" class="edge">
<title>add_serdesc_node&#45;&gt;add_seraccess_node:n</title>
<path fill="none" stroke="black" d="M256.11,-71.87C245.92,-62.5 234.29,-51.79 226.87,-44.97"/>
<polygon fill="black" stroke="black" points="229.03,-42.2 219.3,-38 224.29,-47.35 229.03,-42.2"/>
</g>
<!-- upd_ser_node -->
<g id="node15" class="node">
<title>upd_ser_node</title>
<polygon fill="none" stroke="black" points="434.6,-38 277.6,-38 277.6,0 434.6,0 434.6,-38"/>
<text text-anchor="middle" x="356.1" y="-22.8" font-family="Nimbus Mono" font-size="14.00">service</text>
<text text-anchor="middle" x="356.1" y="-7.8" font-family="Nimbus Mono" font-size="14.00">update&#45;parameters</text>
</g>
<!-- add_serdesc_node&#45;&gt;upd_ser_node -->
<g id="edge14" class="edge">
<title>add_serdesc_node&#45;&gt;upd_ser_node:n</title>
<path fill="none" stroke="black" d="M305.49,-71.87C320.38,-61.9 337.52,-50.43 347.55,-43.72"/>
<polygon fill="black" stroke="black" points="349.74,-46.47 356.1,-38 345.84,-40.65 349.74,-46.47"/>
</g>
</g>
</svg>
